<!--?xml version="1.0" standalone="no"?-->
              <svg id="sw-js-blob-svg" viewBox="0 0 100 100" xmlns="http://www.w3.org/2000/svg" version="1.1">
                    <defs> 
                        <linearGradient id="sw-gradient" x1="0" x2="1" y1="1" y2="0">
                            <stop id="stop1" stop-color="rgba(248, 117, 55, 1)" offset="0%"></stop>
                            <stop id="stop2" stop-color="rgba(251, 168, 31, 1)" offset="100%"></stop>
                        </linearGradient>
                    </defs>
                <path fill="url(#sw-gradient)" d="M26.1,-31.3C33.1,-25.2,37.6,-16.3,38.7,-7.3C39.8,1.8,37.5,11,33.1,19.6C28.7,28.2,22.4,36.1,14.2,39.3C5.9,42.5,-4.2,40.9,-12.3,36.7C-20.5,32.5,-26.7,25.8,-32.5,17.8C-38.3,9.8,-43.6,0.6,-39.9,-4.7C-36.2,-10,-23.5,-11.5,-15.4,-17.4C-7.2,-23.3,-3.6,-33.8,3,-37.3C9.5,-40.8,19,-37.4,26.1,-31.3Z" width="100%" height="100%" transform="translate(50 50)" stroke-width="0" style="transition: all 0.3s ease 0s;"></path>
              </svg>